# xmcd CD database file
#
# Track frame offsets:
#	150
#	5690
#	31260
#	57824
#	81563
#	106880
#
# Disc length: 1798 seconds
#
# Revision: 0
# Processed by: cddbd v1.5.1PL2 Copyright (c) Steve Scherf et al.
# Submitted via: CDex 1.51
#
DISCID=43070406
DTITLE=和田京子 - 歌ウコトノハ
DYEAR=2005
DGENRE=Japanese Pop
TTITLE0=歌ウコトノハ
TTITLE1=うたかた
TTITLE2=淡い夏の日
TTITLE3=線香花火
TTITLE4=世田谷通り
TTITLE5=みんな誰かにとって大切な人
EXTD=YEAR: 2005
EXTT0=
EXTT1=
EXTT2=
EXTT3=
EXTT4=
EXTT5=
PLAYORDER=
